<svg xmlns="http://www.w3.org/2000/svg" width="128" height="128" viewBox="0 0 128 128" role="img" aria-label="layout_fluid_miner">
  <defs>
    <linearGradient id="metal" x1="0" y1="0" x2="1" y2="1"><stop offset="0" stop-color="#15191c"/><stop offset="0.55" stop-color="#30343a"/><stop offset="1" stop-color="#101315"/></linearGradient>
    <linearGradient id="channel" x1="0" y1="0" x2="1" y2="1"><stop offset="0" stop-color="#76797e"/><stop offset="0.5" stop-color="#4f5258"/><stop offset="1" stop-color="#2f3237"/></linearGradient>
    <linearGradient id="orange" x1="0" y1="0" x2="1" y2="1"><stop offset="0" stop-color="#f28b18"/><stop offset="1" stop-color="#8c3c16"/></linearGradient>
    <filter id="shadow" x="-20%" y="-20%" width="140%" height="140%"><feDropShadow dx="0" dy="4" stdDeviation="3" flood-color="#000" flood-opacity="0.55"/></filter>
  </defs>
<g filter="url(#shadow)">
<rect x="20" y="22" width="88" height="84" rx="13" fill="#15181b" stroke="#30363b" stroke-width="6"/>
<rect x="28" y="30" width="72" height="68" rx="9" fill="url(#metal)" stroke="#0b0d0f" stroke-width="4"/>
<path d="M34 34 H94 V54 H50 V74 H94 V94 H34 Z" fill="none" stroke="url(#orange)" stroke-width="13" stroke-linecap="round" stroke-linejoin="round"/>
<circle cx="64" cy="64" r="20" fill="#87898d" stroke="#101214" stroke-width="5"/>
<path d="M44 64 H84 M64 44 V84" stroke="#303339" stroke-width="4"/>
<rect x="103" y="52" width="18" height="24" rx="5" fill="#888b90" stroke="#2b2d31" stroke-width="4"/>
<rect x="34" y="94" width="60" height="8" rx="4" fill="#00a3ff" opacity=".55"/>
<polygon points="92,56 108,64 92,72" fill="#b9babd" opacity=".45"/>
</g>
</svg>
