<svg xmlns="http://www.w3.org/2000/svg" width="128" height="128" viewBox="0 0 128 128" role="img" aria-label="space_pipe_right_fwd_splitter">
  <defs>
    <linearGradient id="metal" x1="0" y1="0" x2="1" y2="1"><stop offset="0" stop-color="#15191c"/><stop offset="0.55" stop-color="#30343a"/><stop offset="1" stop-color="#101315"/></linearGradient>
    <linearGradient id="channel" x1="0" y1="0" x2="1" y2="1"><stop offset="0" stop-color="#76797e"/><stop offset="0.5" stop-color="#4f5258"/><stop offset="1" stop-color="#2f3237"/></linearGradient>
    <linearGradient id="orange" x1="0" y1="0" x2="1" y2="1"><stop offset="0" stop-color="#f28b18"/><stop offset="1" stop-color="#8c3c16"/></linearGradient>
    <filter id="shadow" x="-20%" y="-20%" width="140%" height="140%"><feDropShadow dx="0" dy="4" stdDeviation="3" flood-color="#000" flood-opacity="0.55"/></filter>
  </defs>
<g filter="url(#shadow)">
<path d="M 12 64 L 116 64" fill="none" stroke="#171a1d" stroke-width="42" stroke-linecap="round" stroke-linejoin="round"/>
<path d="M 12 64 L 116 64" fill="none" stroke="url(#metal)" stroke-width="34" stroke-linecap="round" stroke-linejoin="round"/>
<path d="M 12 64 L 116 64" fill="none" stroke="url(#channel)" stroke-width="20" stroke-linecap="round" stroke-linejoin="round"/>
<path d="M 64 64 Q 64 74 64 116" fill="none" stroke="#171a1d" stroke-width="42" stroke-linecap="round" stroke-linejoin="round"/>
<path d="M 64 64 Q 64 74 64 116" fill="none" stroke="url(#metal)" stroke-width="34" stroke-linecap="round" stroke-linejoin="round"/>
<path d="M 64 64 Q 64 74 64 116" fill="none" stroke="url(#channel)" stroke-width="20" stroke-linecap="round" stroke-linejoin="round"/>
<rect x="0" y="49" width="24" height="30" rx="5" fill="url(#orange)"/><rect x="3" y="52" width="18" height="24" rx="3" fill="#3a3c40" opacity=".45"/>
<rect x="104" y="49" width="24" height="30" rx="5" fill="url(#orange)"/><rect x="107" y="52" width="18" height="24" rx="3" fill="#3a3c40" opacity=".45"/>
<rect x="49" y="104" width="30" height="24" rx="5" fill="url(#orange)"/><rect x="52" y="107" width="24" height="18" rx="3" fill="#3a3c40" opacity=".45"/>
<polygon points="42,54 62,64 42,74" fill="#b9babd" opacity="0.55"/>
<polygon points="78,54 98,64 78,74" fill="#b9babd" opacity="0.55"/>
<polygon points="54,82 64,102 74,82" fill="#b9babd" opacity="0.55"/>
<rect x="26" y="24" width="76" height="80" rx="12" fill="none" stroke="#ffffff" opacity=".06"/>
</g>
</svg>
