{
	"asset":{
		"generator":"Khronos glTF Blender I/O v5.1.19",
		"version":"2.0"
	},
	"extras":{
		"script":{
			"r":{
				"color-r":239,
				"color-g":68,
				"color-b":68
			},
			"g":{
				"color-r":34,
				"color-g":197,
				"color-b":94
			},
			"b":{
				"color-r":59,
				"color-g":130,
				"color-b":246
			},
			"c":{
				"color-r":46,
				"color-g":196,
				"color-b":182
			},
			"m":{
				"color-r":217,
				"color-g":70,
				"color-b":239
			},
			"y":{
				"color-r":250,
				"color-g":204,
				"color-b":21
			},
			"w":{
				"color-r":255,
				"color-g":255,
				"color-b":255
			}
		}
	},
	"scene":0,
	"scenes":[
		{
			"name":"Scene",
			"nodes":[
				10
			]
		}
	],
	"nodes":[
		{
			"mesh":0,
			"name":"geometry_0"
		},
		{
			"mesh":1,
			"name":"geometry_1"
		},
		{
			"mesh":2,
			"name":"geometry_2"
		},
		{
			"mesh":3,
			"name":"geometry_3",
			"rotation":[
				1,
				0,
				0,
				0
			]
		},
		{
			"mesh":4,
			"name":"geometry_4"
		},
		{
			"mesh":5,
			"name":"geometry_5"
		},
		{
			"mesh":6,
			"name":"geometry_6"
		},
		{
			"mesh":7,
			"name":"geometry_7"
		},
		{
			"mesh":8,
			"name":"geometry_8"
		},
		{
			"mesh":9,
			"name":"geometry_9"
		},
		{
			"children":[
				0,
				1,
				2,
				3,
				4,
				5,
				6,
				7,
				8,
				9
			],
			"name":"world",
			"rotation":[
				-0.7094495892524719,
				0,
				0,
				0.7047562599182129
			]
		}
	],
	"materials":[
		{
			"doubleSided":true,
			"name":"DefaultMaterial",
			"pbrMetallicRoughness":{
				"metallicFactor":0,
				"roughnessFactor":0.5
			}
		},
		{
			"doubleSided":true,
			"name":"DefaultMaterial.001",
			"pbrMetallicRoughness":{
				"metallicFactor":0,
				"roughnessFactor":0.5
			}
		},
		{
			"doubleSided":true,
			"name":"DefaultMaterial.002",
			"pbrMetallicRoughness":{
				"metallicFactor":0,
				"roughnessFactor":0.5
			}
		},
		{
			"doubleSided":true,
			"name":"DefaultMaterial.003",
			"pbrMetallicRoughness":{
				"metallicFactor":0,
				"roughnessFactor":0.5
			}
		},
		{
			"doubleSided":true,
			"name":"DefaultMaterial.004",
			"pbrMetallicRoughness":{
				"metallicFactor":0,
				"roughnessFactor":0.5
			}
		},
		{
			"doubleSided":true,
			"name":"DefaultMaterial.005",
			"pbrMetallicRoughness":{
				"metallicFactor":0,
				"roughnessFactor":0.5
			}
		},
		{
			"doubleSided":true,
			"name":"DefaultMaterial.006",
			"pbrMetallicRoughness":{
				"metallicFactor":0,
				"roughnessFactor":0.5
			}
		},
		{
			"doubleSided":true,
			"name":"DefaultMaterial.007",
			"pbrMetallicRoughness":{
				"metallicFactor":0,
				"roughnessFactor":0.5
			}
		},
		{
			"doubleSided":true,
			"name":"DefaultMaterial.008",
			"pbrMetallicRoughness":{
				"metallicFactor":0,
				"roughnessFactor":0.5
			}
		},
		{
			"doubleSided":true,
			"name":"DefaultMaterial.009",
			"pbrMetallicRoughness":{
				"metallicFactor":0,
				"roughnessFactor":0.5
			}
		}
	],
	"meshes":[
		{
			"name":"geometry_0",
			"primitives":[
				{
					"attributes":{
						"POSITION":0,
						"NORMAL":1,
						"COLOR_0":2
					},
					"indices":3,
					"material":0
				}
			]
		},
		{
			"name":"geometry_1",
			"primitives":[
				{
					"attributes":{
						"POSITION":4,
						"NORMAL":5,
						"COLOR_0":6
					},
					"indices":7,
					"material":1
				}
			]
		},
		{
			"name":"geometry_2",
			"primitives":[
				{
					"attributes":{
						"POSITION":8,
						"NORMAL":9,
						"COLOR_0":10
					},
					"indices":11,
					"material":2
				}
			]
		},
		{
			"name":"geometry_3",
			"primitives":[
				{
					"attributes":{
						"POSITION":12,
						"NORMAL":13,
						"COLOR_0":14
					},
					"indices":15,
					"material":3
				}
			]
		},
		{
			"name":"geometry_4",
			"primitives":[
				{
					"attributes":{
						"POSITION":16,
						"NORMAL":17,
						"COLOR_0":18
					},
					"indices":15,
					"material":4
				}
			]
		},
		{
			"name":"geometry_5",
			"primitives":[
				{
					"attributes":{
						"POSITION":19,
						"NORMAL":20,
						"COLOR_0":21
					},
					"indices":15,
					"material":5
				}
			]
		},
		{
			"name":"geometry_6",
			"primitives":[
				{
					"attributes":{
						"POSITION":22,
						"NORMAL":23,
						"COLOR_0":24
					},
					"indices":15,
					"material":6
				}
			]
		},
		{
			"name":"geometry_7",
			"primitives":[
				{
					"attributes":{
						"POSITION":25,
						"NORMAL":26,
						"COLOR_0":27
					},
					"indices":15,
					"material":7
				}
			]
		},
		{
			"name":"geometry_8",
			"primitives":[
				{
					"attributes":{
						"POSITION":28,
						"NORMAL":29,
						"COLOR_0":30
					},
					"indices":15,
					"material":8
				}
			]
		},
		{
			"name":"geometry_9",
			"primitives":[
				{
					"attributes":{
						"POSITION":31,
						"NORMAL":32,
						"COLOR_0":33
					},
					"indices":15,
					"material":9
				}
			]
		}
	],
	"accessors":[
		{
			"bufferView":0,
			"componentType":5126,
			"count":386,
			"max":[
				0.550000011920929,
				0.550000011920929,
				0.699999988079071
			],
			"min":[
				-0.550000011920929,
				-0.550000011920929,
				0
			],
			"type":"VEC3"
		},
		{
			"bufferView":1,
			"componentType":5126,
			"count":386,
			"type":"VEC3"
		},
		{
			"bufferView":2,
			"componentType":5126,
			"count":386,
			"type":"VEC3"
		},
		{
			"bufferView":3,
			"componentType":5123,
			"count":768,
			"type":"SCALAR"
		},
		{
			"bufferView":4,
			"componentType":5126,
			"count":386,
			"max":[
				0.6200000047683716,
				0.6200000047683716,
				0.7599999904632568
			],
			"min":[
				-0.6200000047683716,
				-0.6200000047683716,
				0.6800000071525574
			],
			"type":"VEC3"
		},
		{
			"bufferView":5,
			"componentType":5126,
			"count":386,
			"type":"VEC3"
		},
		{
			"bufferView":6,
			"componentType":5126,
			"count":386,
			"type":"VEC3"
		},
		{
			"bufferView":7,
			"componentType":5123,
			"count":768,
			"type":"SCALAR"
		},
		{
			"bufferView":8,
			"componentType":5126,
			"count":386,
			"max":[
				0.5400000214576721,
				0.5400000214576721,
				0.7749999761581421
			],
			"min":[
				-0.5400000214576721,
				-0.5400000214576721,
				0.7450000047683716
			],
			"type":"VEC3"
		},
		{
			"bufferView":9,
			"componentType":5126,
			"count":386,
			"type":"VEC3"
		},
		{
			"bufferView":10,
			"componentType":5126,
			"count":386,
			"type":"VEC3"
		},
		{
			"bufferView":11,
			"componentType":5123,
			"count":768,
			"type":"SCALAR"
		},
		{
			"bufferView":12,
			"componentType":5126,
			"count":24,
			"max":[
				0.6000000238418579,
				0.4000000059604645,
				0
			],
			"min":[
				-0.6000000238418579,
				-0.4000000059604645,
				-0.18000000715255737
			],
			"type":"VEC3"
		},
		{
			"bufferView":13,
			"componentType":5126,
			"count":24,
			"type":"VEC3"
		},
		{
			"bufferView":14,
			"componentType":5126,
			"count":24,
			"type":"VEC3"
		},
		{
			"bufferView":15,
			"componentType":5123,
			"count":36,
			"type":"SCALAR"
		},
		{
			"bufferView":16,
			"componentType":5126,
			"count":24,
			"max":[
				-0.4099999964237213,
				0.3499999940395355,
				0.22499999403953552
			],
			"min":[
				-0.5899999737739563,
				-0.3499999940395355,
				-0.125
			],
			"type":"VEC3"
		},
		{
			"bufferView":17,
			"componentType":5126,
			"count":24,
			"type":"VEC3"
		},
		{
			"bufferView":18,
			"componentType":5126,
			"count":24,
			"type":"VEC3"
		},
		{
			"bufferView":19,
			"componentType":5126,
			"count":24,
			"max":[
				0.5899999737739563,
				0.3499999940395355,
				0.22499999403953552
			],
			"min":[
				0.4099999964237213,
				-0.3499999940395355,
				-0.125
			],
			"type":"VEC3"
		},
		{
			"bufferView":20,
			"componentType":5126,
			"count":24,
			"type":"VEC3"
		},
		{
			"bufferView":21,
			"componentType":5126,
			"count":24,
			"type":"VEC3"
		},
		{
			"bufferView":22,
			"componentType":5126,
			"count":24,
			"max":[
				-0.47999998927116394,
				0.3199999928474426,
				-0.10999999940395355
			],
			"min":[
				-0.5600000023841858,
				0.23999999463558197,
				-0.1899999976158142
			],
			"type":"VEC3"
		},
		{
			"bufferView":23,
			"componentType":5126,
			"count":24,
			"type":"VEC3"
		},
		{
			"bufferView":24,
			"componentType":5126,
			"count":24,
			"type":"VEC3"
		},
		{
			"bufferView":25,
			"componentType":5126,
			"count":24,
			"max":[
				-0.47999998927116394,
				-0.23999999463558197,
				-0.10999999940395355
			],
			"min":[
				-0.5600000023841858,
				-0.3199999928474426,
				-0.1899999976158142
			],
			"type":"VEC3"
		},
		{
			"bufferView":26,
			"componentType":5126,
			"count":24,
			"type":"VEC3"
		},
		{
			"bufferView":27,
			"componentType":5126,
			"count":24,
			"type":"VEC3"
		},
		{
			"bufferView":28,
			"componentType":5126,
			"count":24,
			"max":[
				0.5600000023841858,
				0.3199999928474426,
				-0.10999999940395355
			],
			"min":[
				0.47999998927116394,
				0.23999999463558197,
				-0.1899999976158142
			],
			"type":"VEC3"
		},
		{
			"bufferView":29,
			"componentType":5126,
			"count":24,
			"type":"VEC3"
		},
		{
			"bufferView":30,
			"componentType":5126,
			"count":24,
			"type":"VEC3"
		},
		{
			"bufferView":31,
			"componentType":5126,
			"count":24,
			"max":[
				0.5600000023841858,
				-0.23999999463558197,
				-0.10999999940395355
			],
			"min":[
				0.47999998927116394,
				-0.3199999928474426,
				-0.1899999976158142
			],
			"type":"VEC3"
		},
		{
			"bufferView":32,
			"componentType":5126,
			"count":24,
			"type":"VEC3"
		},
		{
			"bufferView":33,
			"componentType":5126,
			"count":24,
			"type":"VEC3"
		}
	],
	"bufferViews":[
		{
			"buffer":0,
			"byteLength":4632,
			"byteOffset":0,
			"target":34962
		},
		{
			"buffer":0,
			"byteLength":4632,
			"byteOffset":4632,
			"target":34962
		},
		{
			"buffer":0,
			"byteLength":4632,
			"byteOffset":9264,
			"target":34962
		},
		{
			"buffer":0,
			"byteLength":1536,
			"byteOffset":13896,
			"target":34963
		},
		{
			"buffer":0,
			"byteLength":4632,
			"byteOffset":15432,
			"target":34962
		},
		{
			"buffer":0,
			"byteLength":4632,
			"byteOffset":20064,
			"target":34962
		},
		{
			"buffer":0,
			"byteLength":4632,
			"byteOffset":24696,
			"target":34962
		},
		{
			"buffer":0,
			"byteLength":1536,
			"byteOffset":29328,
			"target":34963
		},
		{
			"buffer":0,
			"byteLength":4632,
			"byteOffset":30864,
			"target":34962
		},
		{
			"buffer":0,
			"byteLength":4632,
			"byteOffset":35496,
			"target":34962
		},
		{
			"buffer":0,
			"byteLength":4632,
			"byteOffset":40128,
			"target":34962
		},
		{
			"buffer":0,
			"byteLength":1536,
			"byteOffset":44760,
			"target":34963
		},
		{
			"buffer":0,
			"byteLength":288,
			"byteOffset":46296,
			"target":34962
		},
		{
			"buffer":0,
			"byteLength":288,
			"byteOffset":46584,
			"target":34962
		},
		{
			"buffer":0,
			"byteLength":288,
			"byteOffset":46872,
			"target":34962
		},
		{
			"buffer":0,
			"byteLength":72,
			"byteOffset":47160,
			"target":34963
		},
		{
			"buffer":0,
			"byteLength":288,
			"byteOffset":47232,
			"target":34962
		},
		{
			"buffer":0,
			"byteLength":288,
			"byteOffset":47520,
			"target":34962
		},
		{
			"buffer":0,
			"byteLength":288,
			"byteOffset":47808,
			"target":34962
		},
		{
			"buffer":0,
			"byteLength":288,
			"byteOffset":48096,
			"target":34962
		},
		{
			"buffer":0,
			"byteLength":288,
			"byteOffset":48384,
			"target":34962
		},
		{
			"buffer":0,
			"byteLength":288,
			"byteOffset":48672,
			"target":34962
		},
		{
			"buffer":0,
			"byteLength":288,
			"byteOffset":48960,
			"target":34962
		},
		{
			"buffer":0,
			"byteLength":288,
			"byteOffset":49248,
			"target":34962
		},
		{
			"buffer":0,
			"byteLength":288,
			"byteOffset":49536,
			"target":34962
		},
		{
			"buffer":0,
			"byteLength":288,
			"byteOffset":49824,
			"target":34962
		},
		{
			"buffer":0,
			"byteLength":288,
			"byteOffset":50112,
			"target":34962
		},
		{
			"buffer":0,
			"byteLength":288,
			"byteOffset":50400,
			"target":34962
		},
		{
			"buffer":0,
			"byteLength":288,
			"byteOffset":50688,
			"target":34962
		},
		{
			"buffer":0,
			"byteLength":288,
			"byteOffset":50976,
			"target":34962
		},
		{
			"buffer":0,
			"byteLength":288,
			"byteOffset":51264,
			"target":34962
		},
		{
			"buffer":0,
			"byteLength":288,
			"byteOffset":51552,
			"target":34962
		},
		{
			"buffer":0,
			"byteLength":288,
			"byteOffset":51840,
			"target":34962
		},
		{
			"buffer":0,
			"byteLength":288,
			"byteOffset":52128,
			"target":34962
		}
	],
	"buffers":[
		{
			"byteLength":52416,
			"uri":"defaultFluidTank.bin"
		}
	]
}
