{
	"asset":{
		"generator":"Khronos glTF Blender I/O v5.1.19",
		"version":"2.0"
	},
	"scene":0,
	"scenes":[
		{
			"name":"Scene",
			"nodes":[
				1
			]
		}
	],
	"nodes":[
		{
			"mesh":0,
			"name":"geometry_0"
		},
		{
			"children":[
				0
			],
			"name":"world"
		}
	],
	"materials":[
		{
			"name":"Material_0",
			"pbrMetallicRoughness":{
				"baseColorTexture":{
					"index":0
				}
			}
		}
	],
	"meshes":[
		{
			"name":"geometry_0",
			"primitives":[
				{
					"attributes":{
						"POSITION":0,
						"NORMAL":1,
						"TEXCOORD_0":2
					},
					"indices":3,
					"material":0
				}
			]
		}
	],
	"textures":[
		{
			"sampler":0,
			"source":0
		}
	],
	"images":[
		{
			"mimeType":"image/png",
			"name":"Image_0",
			"uri":"Image_0.png"
		}
	],
	"accessors":[
		{
			"bufferView":0,
			"componentType":5126,
			"count":46684,
			"max":[
				0.4544329345226288,
				0.5002377033233643,
				0.46346020698547363
			],
			"min":[
				-0.45388469099998474,
				-0.5006319284439087,
				-0.45525047183036804
			],
			"type":"VEC3"
		},
		{
			"bufferView":1,
			"componentType":5126,
			"count":46684,
			"type":"VEC3"
		},
		{
			"bufferView":2,
			"componentType":5126,
			"count":46684,
			"type":"VEC2"
		},
		{
			"bufferView":3,
			"componentType":5123,
			"count":46704,
			"type":"SCALAR"
		}
	],
	"bufferViews":[
		{
			"buffer":0,
			"byteLength":560208,
			"byteOffset":0,
			"target":34962
		},
		{
			"buffer":0,
			"byteLength":560208,
			"byteOffset":560208,
			"target":34962
		},
		{
			"buffer":0,
			"byteLength":373472,
			"byteOffset":1120416,
			"target":34962
		},
		{
			"buffer":0,
			"byteLength":93408,
			"byteOffset":1493888,
			"target":34963
		}
	],
	"samplers":[
		{
			"magFilter":9729,
			"minFilter":9987
		}
	],
	"buffers":[
		{
			"byteLength":1587296,
			"uri":"ShapeDefaultFluidTankFilled.bin"
		}
	]
}
