{
	"asset":{
		"generator":"Khronos glTF Blender I/O v5.1.19",
		"version":"2.0"
	},
	"scene":0,
	"scenes":[
		{
			"name":"Scene",
			"nodes":[
				1
			]
		}
	],
	"nodes":[
		{
			"mesh":0,
			"name":"geometry_0"
		},
		{
			"children":[
				0
			],
			"name":"world"
		}
	],
	"materials":[
		{
			"name":"Material_0",
			"pbrMetallicRoughness":{
				"baseColorTexture":{
					"index":0
				}
			}
		}
	],
	"meshes":[
		{
			"name":"geometry_0",
			"primitives":[
				{
					"attributes":{
						"POSITION":0,
						"NORMAL":1,
						"TEXCOORD_0":2
					},
					"indices":3,
					"material":0
				}
			]
		}
	],
	"textures":[
		{
			"sampler":0,
			"source":0
		}
	],
	"images":[
		{
			"mimeType":"image/png",
			"name":"Image_0",
			"uri":"Image_0.png"
		}
	],
	"accessors":[
		{
			"bufferView":0,
			"componentType":5126,
			"count":60634,
			"max":[
				0.4632854759693146,
				0.5002275109291077,
				0.4642447531223297
			],
			"min":[
				-0.4630292057991028,
				-0.4999764561653137,
				-0.46595028042793274
			],
			"type":"VEC3"
		},
		{
			"bufferView":1,
			"componentType":5126,
			"count":60634,
			"type":"VEC3"
		},
		{
			"bufferView":2,
			"componentType":5126,
			"count":60634,
			"type":"VEC2"
		},
		{
			"bufferView":3,
			"componentType":5123,
			"count":60660,
			"type":"SCALAR"
		}
	],
	"bufferViews":[
		{
			"buffer":0,
			"byteLength":727608,
			"byteOffset":0,
			"target":34962
		},
		{
			"buffer":0,
			"byteLength":727608,
			"byteOffset":727608,
			"target":34962
		},
		{
			"buffer":0,
			"byteLength":485072,
			"byteOffset":1455216,
			"target":34962
		},
		{
			"buffer":0,
			"byteLength":121320,
			"byteOffset":1940288,
			"target":34963
		}
	],
	"samplers":[
		{
			"magFilter":9729,
			"minFilter":9987
		}
	],
	"buffers":[
		{
			"byteLength":2061608,
			"uri":"ShapeDefaultFluidTank.bin"
		}
	]
}
